<svg xmlns="http://www.w3.org/2000/svg" xmlns:svg="http://www.w3.org/2000/svg" xmlns:xlink="http://www.w3.org/1999/xlink" id="svg6485" width="32" height="32" version="1.1" viewBox="0 0 32 32"><defs id="defs6487"><linearGradient id="linearGradient7176"><stop id="stop7178" offset="0" stop-color="#f7d321" stop-opacity="1"/><stop id="stop7180" offset="1" stop-color="#f52a9b" stop-opacity="1"/></linearGradient><linearGradient id="linearGradient7182" x1="4" x2="28" y1="1036.362" y2="1036.362" gradientUnits="userSpaceOnUse" xlink:href="#linearGradient7176"/></defs><g id="layer1" transform="translate(0,-1020.3622)"><path id="path11496" fill="url(#linearGradient7182)" fill-opacity="1" fill-rule="nonzero" stroke="none" stroke-dasharray="none" stroke-dashoffset="0" stroke-linecap="round" stroke-linejoin="round" stroke-miterlimit="4" stroke-opacity="1" stroke-width="1" d="M14.5 1020.362c-2.207 0-4 1.793-4 4v4h-3c-.507 0-.922.242-1.226.592a2.28 2.28 0 0 0-.528 1.287l-1.738 18.15c-.104 1.084.777 1.971 1.791 1.971h11.022a6.477 6.477 0 0 0 4.68 2c3.583 0 6.5-2.916 6.5-6.5 0-2.626-1.57-4.89-3.817-5.914l-.93-9.709a2.28 2.28 0 0 0-.527-1.287 1.685 1.685 0 0 0-1.264-.59H18.5v-4c0-2.207-1.792-4-4-4zm0 1c1.67 0 3 1.33 3 3v4h-6v-4c0-1.67 1.33-3 3-3zm-6.963 8.002H10.5v1.998c0 .03.001.06.006.09a1.506 1.506 0 0 0-1.006 1.41c0 .823.678 1.5 1.5 1.5.823 0 1.5-.677 1.5-1.5 0-.65-.424-1.203-1.007-1.41a.547.547 0 0 0 .008-.09v-1.998h6v1.998c-.001.03 0 .06.006.09a1.506 1.506 0 0 0-1.006 1.41c0 .823.677 1.5 1.5 1.5.822 0 1.5-.677 1.5-1.5 0-.65-.425-1.203-1.008-1.41a.547.547 0 0 0 .008-.09v-1.998h2.963c.21 0 .365.08.51.246.144.166.256.427.285.727l.482 5.025h-2.414c-.676-.01-.676 1.01 0 1h2.51l.096 1h-2.415c-.676-.01-.676 1.01 0 1h2.51l.115 1.217a6.48 6.48 0 0 0-1.643-.217 6.508 6.508 0 0 0-6.5 6.5c0 1.29.382 2.488 1.032 3.5H5.799c-.419 0-.841-.389-.795-.875l.012-.125H8.81c.676.01.676-1.01 0-1h-3.7l1.631-17.025c.03-.3.141-.56.286-.727.144-.166.3-.246.51-.246zm3.463 2.998c.282 0 .5.218.5.5 0 .282-.218.5-.5.5a.493.493 0 0 1-.5-.5c0-.282.218-.5.5-.5zm7 0c.282 0 .5.218.5.5 0 .282-.218.5-.5.5a.493.493 0 0 1-.5-.5c0-.282.218-.5.5-.5zm3.5 8c3.044 0 5.5 2.457 5.5 5.5 0 3.044-2.456 5.5-5.5 5.5a5.492 5.492 0 0 1-5.5-5.5c0-3.043 2.457-5.5 5.5-5.5zm3.002 3.012a.49.49 0 0 0-.345.148l-3.655 3.622-1.658-1.659c-.471-.49-1.198.236-.707.707l2.01 2.01a.5.5 0 0 0 .707 0l4.008-3.97a.5.5 0 0 0-.36-.86zm-13.053 3.988c-.666.034-.615 1.034.051 1h2c.676.01.676-1.01 0-1h-2.05z" baseline-shift="baseline" clip-rule="nonzero" color="#000" color-interpolation="sRGB" color-interpolation-filters="linearRGB" color-rendering="auto" direction="ltr" display="inline" font-family="sans-serif" font-size="medium" font-stretch="normal" font-style="normal" font-variant="normal" font-weight="normal" image-rendering="auto" letter-spacing="normal" opacity="1" overflow="visible" shape-rendering="auto" solid-color="#000000" solid-opacity="1" text-anchor="start" text-decoration="none" text-rendering="auto" visibility="visible" white-space="normal" word-spacing="normal" writing-mode="lr-tb" style="line-height:normal;text-indent:0;text-align:start;text-decoration-line:none;text-decoration-style:solid;text-decoration-color:#000;text-transform:none;block-progression:tb;isolation:auto;mix-blend-mode:normal"/></g><style id="style5178" type="text/css"/><metadata/></svg>