<?xml version="1.0" encoding="UTF-8"?><svg xmlns="http://www.w3.org/2000/svg" xmlns:xlink="http://www.w3.org/1999/xlink" version="1.1" id="Layer_1" x="0px" y="0px" viewBox="0 0 24 24" xml:space="preserve"><path fill="#039BE5" d="M22 5H2C.897 5 0 5.855 0 6.906v12.188C0 20.145.897 21 2 21h20c1.103 0 2-.855 2-1.906V6.906C24 5.855 23.103 5 22 5z"/><path opacity="0.2" fill="#FFF" d="M22 5H2C.897 5 0 5.855 0 6.906v.25C0 6.105.897 5.25 2 5.25h20c1.103 0 2 .855 2 1.906v-.25C24 5.855 23.103 5 22 5z"/><path opacity="0.1" d="M22 20.75H2c-1.103 0-2-.855-2-1.906v.25C0 20.145.897 21 2 21h20c1.103 0 2-.855 2-1.906v-.25c0 1.051-.897 1.906-2 1.906z"/><path fill="#FFF" d="M14 15h7v1h-7z"/><path fill="#FFF" d="M12 12h9v1h-9z"/><circle fill="#FFF" cx="7" cy="12" r="2"/><path fill="#FFF" d="M9.987 15.237C9.288 14.9 8.203 14.5 7 14.5s-2.288.4-2.987.737c-.625.3-1.013.9-1.013 1.566V18h8v-1.197c0-.665-.388-1.265-1.013-1.566z"/><path fill="#E6E6E6" d="M12 3a2 2 0 0 1 2 2v4h-4V5a2 2 0 0 1 2-2z"/><path opacity="0.2" fill="#FFF" d="M12 3a2 2 0 0 0-2 2v.25a2 2 0 1 1 4 0V5a2 2 0 0 0-2-2z"/><circle fill="#CCC" cx="12" cy="4.75" r="0.75"/><path opacity="0.1" d="M12 4.25c.317 0 .582.178.736.43C12.699 4.302 12.389 4 12 4s-.7.301-.736.68A.863.863 0 0 1 12 4.25z"/><linearGradient id="SVGID_1_" gradientUnits="userSpaceOnUse" x1="12.7813854" y1="7.5313849" x2="22.6201019" y2="17.3701019"><stop offset="0" stop-color="#3E2723" stop-opacity="0.2"/><stop offset="1" stop-color="#3E2723" stop-opacity="0.02"/></linearGradient><path fill="url(#SVGID_1_)" d="M14.5 5H14v4h-4l12 12c1.103 0 2-.855 2-1.906V14.5L14.5 5z"/><linearGradient id="SVGID_2_" gradientUnits="userSpaceOnUse" x1="-0.3457217" y1="7.2430954" x2="24.3457222" y2="18.7569046"><stop offset="0" stop-color="#FFF" stop-opacity="0.2"/><stop offset="1" stop-color="#FFF" stop-opacity="0"/></linearGradient><path fill="url(#SVGID_2_)" d="M22 5h-8a2 2 0 1 0-4 0H2C.897 5 0 5.855 0 6.906v12.188C0 20.145.897 21 2 21h20c1.103 0 2-.855 2-1.906V6.906C24 5.855 23.103 5 22 5z"/><metadata><rdf:RDF xmlns:rdf="http://www.w3.org/1999/02/22-rdf-syntax-ns#" xmlns:rdfs="http://www.w3.org/2000/01/rdf-schema#" xmlns:dc="http://purl.org/dc/elements/1.1/"><rdf:Description about="https://iconscout.com/legal#licenses" dc:title="name,id,tag,license,identity,office" dc:description="name,id,tag,license,identity,office" dc:publisher="Iconscout" dc:date="2017-10-04" dc:format="image/svg+xml" dc:language="en"><dc:creator><rdf:Bag><rdf:li>Those Icons</rdf:li></rdf:Bag></dc:creator></rdf:Description></rdf:RDF></metadata></svg>