<svg xmlns="http://www.w3.org/2000/svg" id="Layer_1" enable-background="new 0 0 64 64" viewBox="0 0 64 64"><path fill="#2b2f64" d="M50.56,27.64v-9.08c0-4.96-1.93-9.63-5.44-13.13C41.62,1.93,36.96,0,32,0C21.76,0,13.44,8.32,13.44,18.56v9.08 c-2.42,0.3-4.32,2.36-4.32,4.86v16.76C9.12,57.39,15.73,64,23.87,64h16.26c8.14,0,14.75-6.61,14.75-14.75V32.49 C54.88,29.99,52.99,27.94,50.56,27.64z M15.37,18.56C15.37,9.4,22.83,1.94,32,1.94c4.45,0,8.62,1.73,11.76,4.86 c3.14,3.14,4.87,7.31,4.87,11.76v9.02h-3.1v-9.02c0-7.46-6.07-13.53-13.53-13.53S18.48,11.1,18.48,18.56v9.02h-3.1V18.56z M43.58,18.56v9.02H20.42v-9.02c0-6.39,5.2-11.59,11.58-11.59C38.39,6.97,43.58,12.17,43.58,18.56z M52.94,49.25 c0,7.06-5.75,12.81-12.81,12.81H23.87c-7.06,0-12.81-5.75-12.81-12.81V32.49c0-1.64,1.34-2.98,2.99-2.98h35.91 c1.65,0,2.99,1.34,2.99,2.98V49.25z"/><path fill="#4fbee6" d="M49.95,29.52H14.05c-1.65,0-2.99,1.34-2.99,2.98v16.76c0,7.06,5.75,12.81,12.81,12.81h16.26 c7.06,0,12.81-5.75,12.81-12.81V32.49C52.94,30.86,51.6,29.52,49.95,29.52z M36.53,53.52c0.04,0.27-0.05,0.55-0.23,0.77 c-0.18,0.21-0.46,0.33-0.73,0.33h-7.15c-0.28,0-0.54-0.12-0.73-0.33c-0.18-0.21-0.27-0.49-0.23-0.77l1.13-8.17 c-0.94-0.9-1.48-2.17-1.48-3.5c0-2.7,2.19-4.89,4.88-4.89c2.7,0,4.89,2.19,4.89,4.89c0,1.33-0.54,2.6-1.48,3.5L36.53,53.52z"/><path fill="#38a9da" d="M49.95,29.52H14.05c-1.65,0-2.99,1.34-2.99,2.98v16.76c0,7.06,5.75,12.81,12.81,12.81h16.26 c7.06,0,12.81-5.75,12.81-12.81V32.49C52.94,30.86,51.6,29.52,49.95,29.52z M50.6,48.86c0,6.27-5.11,11.38-11.37,11.38H24.77 c-6.26,0-11.37-5.11-11.37-11.38V33.98c0-1.45,1.18-2.65,2.65-2.65h31.91c1.46,0,2.65,1.19,2.65,2.65V48.86z"/><path fill="#d7d6d6" d="M48.63,18.56v9.02h-3.1v-9.02c0-7.46-6.07-13.53-13.53-13.53S18.48,11.1,18.48,18.56v9.02h-3.1v-9.02 C15.37,9.4,22.83,1.94,32,1.94c4.45,0,8.62,1.73,11.76,4.86C46.9,9.94,48.63,14.11,48.63,18.56z"/><path fill="#2b2f64" d="M36.88,41.84c0-2.7-2.19-4.89-4.89-4.89c-2.69,0-4.88,2.19-4.88,4.89c0,1.33,0.54,2.6,1.48,3.5l-1.13,8.17 c-0.04,0.27,0.05,0.55,0.23,0.77c0.18,0.21,0.45,0.33,0.73,0.33h7.15c0.27,0,0.54-0.12,0.73-0.33c0.18-0.21,0.27-0.49,0.23-0.77 l-1.13-8.17C36.34,44.44,36.88,43.17,36.88,41.84z M33.41,45.09l1.05,7.58h-4.92l1.05-7.58c0.05-0.35-0.1-0.7-0.38-0.91 c-0.72-0.54-1.15-1.42-1.15-2.34c0-1.62,1.32-2.95,2.94-2.95c1.63,0,2.95,1.33,2.95,2.95c0,0.92-0.44,1.79-1.16,2.34 C33.51,44.39,33.36,44.74,33.41,45.09z"/><path fill="#38a9da" d="M33.41,45.09l1.05,7.58h-4.92l1.05-7.58c0.05-0.35-0.1-0.7-0.38-0.91c-0.72-0.54-1.15-1.42-1.15-2.34 c0-1.62,1.32-2.95,2.94-2.95c1.63,0,2.95,1.33,2.95,2.95c0,0.92-0.44,1.79-1.16,2.34C33.51,44.39,33.36,44.74,33.41,45.09z"/></svg>